<svg width="34" height="35" viewBox="0 0 34 35" fill="none" xmlns="http://www.w3.org/2000/svg">
<rect opacity="0.3" y="0.5" width="34" height="34" rx="6" fill="#FF6F6F"/>
<g clip-path="url(#clip0_219_650)">
<path d="M16.9996 9.00635C12.3027 9.00635 8.50586 12.8032 8.50586 17.5001C8.50586 22.197 12.3027 26.022 16.9996 26.022C21.6965 26.022 25.5215 22.197 25.5215 17.5001C25.5215 12.8032 21.6965 9.00635 16.9996 9.00635ZM16.9996 24.7563C13.0059 24.7563 9.77148 21.4938 9.77148 17.5001C9.77148 13.5063 13.0059 10.272 16.9996 10.272C20.9934 10.272 24.2559 13.5345 24.2559 17.5282C24.2559 21.4938 20.9934 24.7563 16.9996 24.7563Z" fill="#DC2626"/>
<path d="M18.1254 16.1501H15.8754C15.5379 16.1501 15.2285 16.4314 15.2285 16.797V22.422C15.2285 22.7595 15.5098 23.0689 15.8754 23.0689H18.1254C18.4629 23.0689 18.7723 22.7876 18.7723 22.422V16.797C18.7723 16.4314 18.4629 16.1501 18.1254 16.1501ZM17.5066 21.7751H16.5223V17.4158H17.5066V21.7751Z" fill="#DC2626"/>
<path d="M17.0004 11.9595C16.0441 11.9595 15.2285 12.747 15.2285 13.7313C15.2285 14.7157 16.016 15.5032 17.0004 15.5032C17.9848 15.5032 18.7723 14.7157 18.7723 13.7313C18.7723 12.747 17.9566 11.9595 17.0004 11.9595ZM17.0004 14.2095C16.7191 14.2095 16.4941 13.9845 16.4941 13.7032C16.4941 13.422 16.7191 13.197 17.0004 13.197C17.2816 13.197 17.5066 13.422 17.5066 13.7032C17.5066 13.9845 17.2816 14.2095 17.0004 14.2095Z" fill="#DC2626"/>
</g>
<defs>
<clipPath id="clip0_219_650">
<rect width="18" height="18" fill="white" transform="translate(8 8.5)"/>
</clipPath>
</defs>
</svg>
